<svg xmlns="http://www.w3.org/2000/svg" viewBox="0 0 80 80"><title>wlm-icon-cam-white</title><path d="M37.74,58.37l15,6a11.15,11.15,0,0,0,5,.77l6.46-.49a4.49,4.49,0,0,0,4.16-4.48V28.23A4.5,4.5,0,0,0,65,23.88L31,15a4.48,4.48,0,0,0-1.59-.13l-5.14.52a4.49,4.49,0,0,0-4.05,4.47v3.94" fill="none" stroke="#fff" stroke-linecap="round" stroke-linejoin="round" stroke-width="3"/><path d="M55.35,40.54V30.91a3.62,3.62,0,0,0-2.71-3.5l-7.39-1.94" fill="none" stroke="#fff" stroke-linecap="round" stroke-linejoin="round" stroke-width="3"/><path d="M35.59,59c5.56-.5,9.41-8.22,8.59-17.25s-6-15.92-11.56-15.42L20.35,27.4c-5.56.5-9.41,8.23-8.59,17.25s6,15.92,11.56,15.42Z" fill="none" stroke="#fff" stroke-linecap="round" stroke-linejoin="round" stroke-width="3"/><path d="M17.22,35a5.42,5.42,0,0,1,3.86-2.5c3.81-.34,7.35,4.38,7.91,10.55s-2.07,11.46-5.88,11.81" fill="none" stroke="#fff" stroke-linecap="round" stroke-linejoin="round" stroke-width="3"/></svg>